<svg xmlns="http://www.w3.org/2000/svg" width="343.478" height="361.088" viewBox="0 0 343.478 361.088"><defs><style>.a{fill:#fff;}.b{fill:#fcdc4a;}.c{fill:#211715;}</style></defs><path class="a" d="M79.491,193.4c-2.931-7.054-5.235-11.376-9.023-18.683-.239-.462-1.921-2.807-3.517-3.268a4.1,4.1,0,0,0-4.091,1.052,5.315,5.315,0,0,0-1.668,3.8,50.016,50.016,0,0,0,2.235,14.652c-8.493-1.139-25.5-9.213-34.573-14.008-2.179-1.151-4.347-2.469-6.795-2.816-2.525-.369-6.993,1.377-7.876,3.8-3.445-1.666-5.323-1.633-7.469-.817-2.548.972-3.3,1.988-3.8,3.43a6.188,6.188,0,0,0,.228,4.963,1.748,1.748,0,0,1,.223.692,1.44,1.44,0,0,1-.246.693,7.723,7.723,0,0,0,1.8,8.964,4.264,4.264,0,0,0,.453,5c6.568,7.457,30.031,21.148,43.439,26.317a5.988,5.988,0,0,1,2.056,1.095,5.884,5.884,0,0,1,1.33,2.381c.836,2.287,1.461,3.9,2.147,5.964,6.088-1.691,20.65-5.811,28.808-8.858a48.608,48.608,0,0,1-1.615-7.144l-.155-1.822c1.446-7.921,1.984-15.789-1.036-23.3C80.055,194.774,79.77,194.077,79.491,193.4Z"></path><path class="a" d="M52.949,237.009c5.288-1.46,24.142-6.715,32.247-10.042.779,1.953,2.359,6.727,3.353,9.3l.222.554c-10.255,3.987-24.081,8.609-34.153,10.385l-.061-.2c-.985-3.143-2.407-8.754-2.738-9.688Z"></path><path class="a" d="M270.685,88.218a7.955,7.955,0,0,1,6.361-1.861,7.506,7.506,0,0,1,5.4,3.588,10.609,10.609,0,0,1,1.111,4.269,31.8,31.8,0,0,1-3.242,16.857,20.2,20.2,0,0,1-5.227,6.86c-2.135,1.7-4.282,2.517-7.826.722a47.536,47.536,0,0,1-2.069,7.476c-1.678,4.483-10.459,19.15-21.873,26.137.015,3.605.209,7.356,1.409,10.33,2.58,6.39,16.52,14.43,17.48,14.85,0,0-5.409,34.723-45.7,34.723s-41.775-34.723-41.775-34.723c.96-.42,12.71-7.34,15.3-13.73,1.215-3,1.4-6.769,1.407-10.366a44.969,44.969,0,0,1-14.313-11.613,53.851,53.851,0,0,1-10.858-21.891c-3.286,1.313-5.738-.383-7.659-1.915a20.2,20.2,0,0,1-5.227-6.86,31.805,31.805,0,0,1-3.242-16.857,10.609,10.609,0,0,1,1.111-4.269,7.507,7.507,0,0,1,5.4-3.588A7.954,7.954,0,0,1,163,88.218S161.463,43.5,217.463,43.5C273.241,43.5,270.685,88.218,270.685,88.218Z"></path><path class="a" d="M341.073,358.391c-4.888-67.555-12.54-127.691-18.721-148.3-1.778-5.926-4.444-9.481-7.407-11.852s-7.89-3.944-11.314-5.6c-11.131-5.377-25.664-11.363-37.072-16.123l-2.175-.908a60.935,60.935,0,0,0-11.217-9.223c-4.983,21.36-13.835,44.417-20.852,65.2q-7.062,20.915-14.126,41.831c-6.279-15.57-10.431-26.049-15.761-41.831-7.017-20.781-15.869-43.838-20.851-65.2A61.685,61.685,0,0,0,169.8,176.2l-2.4,1c-11.41,4.76-25.95,10.75-37.08,16.12-3.42,1.66-7.44,2.44-10.03,5.22a28.929,28.929,0,0,0-6.04,9.85c-7.322,19.093-8.911,30.464-15.634,48.769-2.149-7.089-4.207-14.1-6.454-21.686-11.536,4.688-29.8,10.953-40.993,12.24,3.727,18.036,7.339,37.4,13.3,55.681C68.6,316.1,74.8,328.171,87.323,332.831a32.994,32.994,0,0,0,28.9-2.4c7.449-4.386,16.119-13.907,21.535-19.507l2.326-2.123c.47,7.012.342,13.843.342,21.293,0,9.95-.59,17.3-.6,28.59Z"></path><path class="a" d="M220.009,175.633a.762.762,0,0,0-.2.207H215.17a5.993,5.993,0,0,0-2.053-1.162c-10.565-4.25-19.38-10.731-23.241-15.921-3.808,3.5-5.018,6.21-7.5,10.953,5.086,20.413,13.392,42.17,20.047,61.879,5.33,15.782,9.482,26.261,15.761,41.831q7.064-20.916,14.126-41.831c6.688-19.807,15.043-41.681,20.123-62.182-2.371-4.557-3.61-7.224-7.336-10.65-3.861,5.19-12.676,11.671-23.241,15.921A9.193,9.193,0,0,0,220.009,175.633Z"></path><path class="a" d="M235.8,193.5a103.437,103.437,0,0,0,16-25.334c-1.984-3.827-3.318-6.308-6.694-9.412-3.861,5.19-12.676,11.671-23.241,15.921a6,6,0,0,0-2.054,1.162c-.253.471.239.885.471,1.255.363.582,2.148,2.074,5.185,5.408C228.909,186.284,232.945,190.1,235.8,193.5Z"></path><path class="a" d="M199.181,193.5a103.5,103.5,0,0,1-16-25.334c1.985-3.827,3.319-6.308,6.695-9.412,3.861,5.19,12.676,11.671,23.241,15.921a5.993,5.993,0,0,1,2.053,1.162c.253.471-.239.885-.47,1.255-.364.582-2.148,2.074-5.185,5.408C206.069,186.284,202.033,190.1,199.181,193.5Z"></path><path class="b" d="M162.908,87.892c1.722,1.772,2.682-1.859,3.333-3.278,1.037-2.26,2.555-5.556,3.667-7.778.611-1.224,1.494-3.016,2.035-4.265q.859-1.983,1.823-3.91a79.658,79.658,0,0,1,4.294-7.528,9.983,9.983,0,0,1,2.747-3.114c3.37-2.212,8-.427,12.106-.736,4.567-.344,8.35-3.292,12.561-4.97,5.854-2.333,14.834-2.948,20.508-.255,2.87.148,5.546.022,8.148,0a51.705,51.705,0,0,1,8.722.389c8.37,1.921,14.179,6.539,18.389,13.537a65.754,65.754,0,0,1,6.63,14.671,51.48,51.48,0,0,1,1.24,5.568c.1.631.17,1.277.229,1.91.04.431.47.584,1.484-.1l-.139.189a7.953,7.953,0,0,1,6.32-1.867c3.973-13.051,2.9-29.6-.963-39.464-2.656-6.788-6.726-14.622-14.97-19.146l-7.568-6.7c-3.4-6.9-10.5-12.808-19.83-16.142-9.781-3.493-38.294-4.086-47.88,4.2l-9.841,6.73c-10.977,5.01-18.72,17-22.019,29.358-3.4,12.733-3.428,31.19,1.356,41.513A7.865,7.865,0,0,1,163,88.218" style="fill: rgb(33, 96, 79);"></path><path class="b" d="M220.438,178.835c-2.608.009-4.777.014-7.413.016-.864.856-2.04,2.038-3.51,3.652-.787.863-1.6,1.729-2.433,2.59.582,3.019.991,4.927,1.632,7.674.1.483.225.949.345,1.432a13.261,13.261,0,0,1,.518,3.175c0,.617-3.02,22.656-5.134,40.092,4.424,12.7,8.279,22.4,13.746,35.954l12.957-38.369c-2.658-17.775-5.471-36.348-5.454-37.332a19.372,19.372,0,0,1,1.242-5.625c.744-2.285,1.2-4.283,1.688-6.247-1.074-1.11-2.142-2.229-3.159-3.344-1.482-1.627-2.665-2.815-3.531-3.673Z" style="fill: rgb(33, 96, 79);"></path><path class="c" d="M61.409,188.134c-6.776-1.639-13.277-4.526-19.583-7.445q-4.861-2.25-9.629-4.7c-3.355-1.726-6.885-4.227-10.785-4.3-3.779-.073-8.062,2.04-9.543,5.611l3.526-1.434a13.786,13.786,0,0,0-6.175-1.689,11.286,11.286,0,0,0-5.457,1.7A7.367,7.367,0,0,0,.6,179.909a8.689,8.689,0,0,0-.46,3.557,29.2,29.2,0,0,0,.911,3.374v-1.276c-.176.825-.679,1.581-.846,2.436a10.077,10.077,0,0,0-.146,3.113,10.644,10.644,0,0,0,2.683,5.974C4.8,199.4,8.182,196,6.138,193.693A5.472,5.472,0,0,1,4.9,188.965c.26-1.154,1.06-2.1.779-3.4-.26-1.21-.952-2.126-.723-3.427a6.761,6.761,0,0,1,.2-.737c.008-.028.264-.664.106-.329a3.629,3.629,0,0,1,.387-.625,5.3,5.3,0,0,1,2.114-1.163c1.775-.591,3.371-.14,5.2.723a2.455,2.455,0,0,0,3.526-1.434c-.086.208.151-.147.162-.159a4.879,4.879,0,0,1,.524-.5,6.864,6.864,0,0,1,1.566-.867,5.616,5.616,0,0,1,3.733-.389c3.124.8,6.02,2.835,8.888,4.285,6.166,3.116,12.452,6.031,18.884,8.557a76.17,76.17,0,0,0,9.878,3.259c3,.726,4.282-3.9,1.276-4.628Z"></path><path class="c" d="M6.836,197.408c.022-.163.106-.334-.046-.12-.1.138-.228-.081.2-.1a7,7,0,0,1,.74-.124c.97.027,2.081.856,2.933,1.282,2.466,1.233,4.917,2.5,7.386,3.725a90.769,90.769,0,0,0,14.8,6.2c2.971.868,4.24-3.763,1.276-4.628-5.877-1.716-11.363-4.548-16.8-7.306-1.347-.682-2.693-1.368-4.044-2.044a18.329,18.329,0,0,0-4.233-1.869c-2.613-.543-6.416.648-6.828,3.709a2.483,2.483,0,0,0,1.676,2.952,2.416,2.416,0,0,0,2.952-1.676Z"></path><path class="c" d="M5.549,187.588a2.378,2.378,0,0,1,2.171-.175c1.24.518,2.454,1.119,3.667,1.7,2.9,1.391,5.806,2.761,8.753,4.052,5.271,2.31,10.475,4.78,15.8,6.955a2.416,2.416,0,0,0,2.953-1.676,2.46,2.46,0,0,0-1.677-2.952c-5.3-2.165-10.91-4.831-16.333-7.2-3.316-1.448-6.526-3.12-9.821-4.613a10.1,10.1,0,0,0-4.331-1.239,6.107,6.107,0,0,0-4.579,1.753,2.463,2.463,0,0,0,0,3.394,2.421,2.421,0,0,0,3.394,0Z"></path><path class="c" d="M2.207,196.136c-1.238,4.509,2.258,7.519,5.382,10.078a111.355,111.355,0,0,0,10.2,7.313A191.373,191.373,0,0,0,42.26,227c2.07.941,4.207,1.724,6.283,2.643,1.2.53,1.4,1.813,1.824,2.955.573,1.55,1.143,3.1,1.67,4.668.979,2.913,5.616,1.664,4.629-1.276-.436-1.3-.9-2.582-1.373-3.864a26.558,26.558,0,0,0-1.642-4.129c-1.314-2.275-3.712-2.9-5.983-3.835-3.694-1.526-7.6-3.457-11.263-5.372a173.9,173.9,0,0,1-23.053-14.124c-1.4-1.039-2.768-2.12-4.148-3.367-1.123-1.014-2.833-2.192-2.368-3.883.818-2.983-3.811-4.256-4.629-1.276Z"></path><path class="c" d="M83.186,222.1c1.212-6.007,2.2-12.207,1.566-18.345-.622-6.023-3.016-11.455-5.519-16.906-1.03-2.243-2.121-4.458-3.24-6.658-1.161-2.282-2.213-4.741-3.584-6.9-1.164-1.836-2.985-3.766-5.183-4.24a6.868,6.868,0,0,0-7.3,3.327c-1.7,2.649-1.148,6.145-.845,9.114a50.752,50.752,0,0,0,2.1,10.369c.939,2.93,5.575,1.678,4.628-1.276a45.261,45.261,0,0,1-1.779-7.762c-.144-1.079-.242-2.166-.315-3.252a17.421,17.421,0,0,1-.12-3.669c.22-1.385,1.692-2.741,2.935-2.007,1.458.862,1.949,2.214,2.721,3.7,2.063,3.977,4.131,7.953,5.991,12.031,2,4.378,4.058,8.858,4.652,13.679.723,5.862-.187,11.78-1.345,17.521a2.46,2.46,0,0,0,1.676,2.952,2.424,2.424,0,0,0,2.953-1.676Z"></path><path class="c" d="M12.972,180.006c4.325,2.024,8.473,4.426,12.782,6.49,5.04,2.413,9.925,5.138,14.882,7.713,2.738,1.422,5.168-2.719,2.423-4.145-4.957-2.574-9.843-5.3-14.882-7.713-4.31-2.064-8.457-4.465-12.782-6.489a2.469,2.469,0,0,0-3.284.861,2.42,2.42,0,0,0,.861,3.283Z"></path><path class="c" d="M43.65,191.471Q36.47,197.446,29.894,204.1a2.4,2.4,0,0,0,3.394,3.394q6.567-6.643,13.757-12.626a2.409,2.409,0,0,0,0-3.394,2.466,2.466,0,0,0-3.4,0Z"></path><path class="c" d="M34.908,208.751c2.565.053,5.127.171,7.684.368a35.908,35.908,0,0,1,6.7.89,12.454,12.454,0,0,1,7.856,6.664,2.423,2.423,0,0,0,3.284.861,2.449,2.449,0,0,0,.861-3.283,17.215,17.215,0,0,0-10-8.653,33.683,33.683,0,0,0-7.747-1.2c-2.876-.242-5.758-.385-8.643-.445-3.09-.064-3.089,4.736,0,4.8Z"></path><path class="c" d="M79.141,220.624a43.581,43.581,0,0,0,1.7,7.778,2.4,2.4,0,0,0,4.629-1.276,49.973,49.973,0,0,1-1.554-6.626l.086.638c-.023-.171-.042-.342-.057-.514a2.572,2.572,0,0,0-.7-1.7,2.4,2.4,0,0,0-4.1,1.7Z"></path><path class="c" d="M255.576,19.833c-5.013-10.006-16.012-16.761-26.84-18.606a86.137,86.137,0,0,0-30.771.324c-4.92.973-9.987,2.558-13.868,5.857a2.422,2.422,0,0,0,0,3.4,2.45,2.45,0,0,0,3.394,0c.037-.032.585-.477.185-.168.175-.135.357-.263.539-.389.377-.261.767-.505,1.164-.736.693-.4,1.913-.993,2.313-1.158a37.889,37.889,0,0,1,6.239-1.9A72.14,72.14,0,0,1,212.378,4.9c8.952-.168,17.7.326,25.762,4.561,5.552,2.916,10.452,7.13,13.291,12.8,1.384,2.762,5.526.334,4.145-2.423Z"></path><path class="c" d="M246.3,159.5c-.137-.62-.245-1.244-.332-1.873l.086.638a43.7,43.7,0,0,1-.329-5,2.4,2.4,0,0,0-4.8,0,38.143,38.143,0,0,0,.746,7.508,2.418,2.418,0,0,0,2.952,1.676A2.455,2.455,0,0,0,246.3,159.5Z"></path><path class="c" d="M193.306,160.762a47.967,47.967,0,0,0,.525-7.468,2.4,2.4,0,1,0-4.8,0,48.475,48.475,0,0,1-.328,6.083l.085-.638c-.034.25-.071.5-.111.747a2.605,2.605,0,0,0,.242,1.849,2.4,2.4,0,0,0,3.284.861,2.334,2.334,0,0,0,1.1-1.434Z"></path><path class="c" d="M265.137,115.846a25.618,25.618,0,0,1-1.219,6.465c-.238.794-.5,1.581-.766,2.366-.092.271-.183.544-.278.814-.063.181-.36.838-.05.146a49.951,49.951,0,0,1-3.316,6.068A64.4,64.4,0,0,1,245.96,147.47a28.611,28.611,0,0,1-10.072,5.524c-2.966.847-1.705,5.48,1.276,4.628,7.661-2.188,14.041-7.7,19.167-13.613A66.147,66.147,0,0,0,266.818,128.4a34.005,34.005,0,0,0,3.119-12.552c.1-3.09-4.7-3.086-4.8,0Z"></path><path class="c" d="M162.954,115.913c2.86,15.318,11.035,30.027,24.739,38.146a33.306,33.306,0,0,0,11.905,4.358,2.477,2.477,0,0,0,2.953-1.676,2.417,2.417,0,0,0-1.677-2.952c-14.621-2.222-25.812-15.469-30.546-28.775a68.323,68.323,0,0,1-2.745-10.377,2.422,2.422,0,0,0-2.953-1.676,2.452,2.452,0,0,0-1.676,2.952Z"></path><path class="c" d="M272.382,89.915a5.482,5.482,0,0,1,7.6.637c1.081,1.367,1.183,3.324,1.255,4.992a28.346,28.346,0,0,1-.3,5.777,29.313,29.313,0,0,1-4,10.865c-1.537,2.446-4.083,5.753-7.328,4.86-2.983-.821-4.255,3.809-1.276,4.628,8.347,2.3,13.82-7.566,16-14.107a33.657,33.657,0,0,0,1.69-12.245c-.2-4.015-1.27-7.835-4.926-10.017a10.441,10.441,0,0,0-12.114,1.216,2.421,2.421,0,0,0,0,3.394,2.448,2.448,0,0,0,3.394,0Z"></path><path class="c" d="M164.7,86.521A10.449,10.449,0,0,0,153.6,84.8c-3.837,1.7-5.448,5.237-5.842,9.218-.8,8.1,1.63,17.156,6.922,23.417,2.834,3.352,6.921,6.044,11.452,4.99,3.008-.7,1.735-5.328-1.276-4.628-3.153.733-6.22-2.766-7.77-5.089a28.83,28.83,0,0,1-4.258-10.946,28.39,28.39,0,0,1-.392-5.772c.047-1.678.087-3.7,1.068-5.138a5.439,5.439,0,0,1,7.805-.934,2.461,2.461,0,0,0,3.394,0,2.421,2.421,0,0,0,0-3.394Z"></path><path class="c" d="M174.742,13.763c-9.655,4.481-16.452,13.586-20.5,23.189-4.166,9.886-5.509,20.955-5.044,31.621a55.487,55.487,0,0,0,3.007,16.938,2.465,2.465,0,0,0,2.952,1.676,2.419,2.419,0,0,0,1.677-2.952c-3.418-9.168-3.458-19.659-2.325-29.26,1.141-9.676,4.379-19.279,10.4-27.041a33.462,33.462,0,0,1,12.259-10.026,2.421,2.421,0,0,0,.861-3.284,2.456,2.456,0,0,0-3.284-.861Z"></path><path class="c" d="M259.861,29.813c6.633,3.706,10.789,10.064,13.572,16.97,2.972,7.375,3.87,15.5,3.648,23.4a60.6,60.6,0,0,1-2.132,14.65c-.832,2.98,3.8,4.251,4.629,1.276a70.049,70.049,0,0,0,1.63-28.123A51.988,51.988,0,0,0,273.031,35.7a31.962,31.962,0,0,0-10.747-10.026c-2.7-1.509-5.123,2.636-2.423,4.144Z"></path><path class="c" d="M225.177,50.818A26.485,26.485,0,0,0,208.05,49a35.238,35.238,0,0,0-8.086,3.3c-2.26,1.163-4.66,2.445-7.251,2.6-2.716.163-5.4-.524-8.118-.383a9.554,9.554,0,0,0-7.332,3.615c-3.718,4.718-5.967,10.4-8.58,15.746-1.2,2.461-2.138,5.041-3.377,7.483-.566,1.116-1.238,2.159-1.732,3.31-.208.485-.415.97-.669,1.434.019-.035-.256.4-.252.4-.334-.65,1.954-.307,1.952-.309-2.267-2.093-5.67,1.293-3.395,3.395,2.073,1.914,4.6,1.179,5.9-1.178.394-.715.643-1.5,1.008-2.224.666-1.326,1.449-2.578,2.062-3.935,2.243-4.964,4.321-10.023,6.929-14.815q1.09-2,2.294-3.94a12.9,12.9,0,0,1,2.347-3.191c1.882-1.592,4.849-.983,7.084-.773a19.185,19.185,0,0,0,8.3-.72,75.552,75.552,0,0,0,7.659-3.591,21.3,21.3,0,0,1,17.958-.26,2.47,2.47,0,0,0,3.284-.861,2.419,2.419,0,0,0-.861-3.283Z"></path><path class="c" d="M203.742,39.12a25.619,25.619,0,0,1,18.646,3.033,20.908,20.908,0,0,1,5.888,4.93,36.578,36.578,0,0,1,3.994,6.6c1.4,2.755,5.541.328,4.144-2.423-2.834-5.582-6.371-10.336-11.934-13.439a30.656,30.656,0,0,0-22.014-3.329c-3.011.684-1.737,5.313,1.276,4.628Z"></path><path class="c" d="M242.877,53.93a24.046,24.046,0,0,1,14.1,9.905,57.024,57.024,0,0,1,8.766,18.145c.3,1.15.58,2.307.807,3.474.211,1.086.217,2.25.478,3.318.6,2.442,3.245,2.426,5.009,1.329,2.619-1.627.211-5.781-2.422-4.144q-1.156.569,1.044.366l.861.861q.287.948.122-.007-.067-.558-.146-1.116c-.089-.631-.2-1.258-.317-1.883-.242-1.245-.54-2.479-.868-3.7a46.889,46.889,0,0,0-2.117-6.033,71.651,71.651,0,0,0-5.952-11.385c-4.333-6.649-10.215-11.889-18.087-13.756-3-.712-4.285,3.915-1.276,4.629Z"></path><path class="c" d="M100.927,257.792c4.984-13.616,8.23-27.765,12.967-41.459a71.327,71.327,0,0,1,4.262-10.768c1.551-2.859,3.554-5.726,6.5-7.255,1.461-.76,3.025-1.282,4.547-1.9,1.707-.694,3.354-1.512,5.021-2.294,3.4-1.595,6.825-3.131,10.264-4.637,7.806-3.419,15.681-6.678,23.546-9.959a2.479,2.479,0,0,0,1.676-2.952,2.415,2.415,0,0,0-2.952-1.676c-7.3,3.044-14.6,6.071-21.863,9.211-6.819,2.95-13.516,6.164-20.367,9.025a19.236,19.236,0,0,0-4.977,2.826,22.092,22.092,0,0,0-3.659,4.195,43.1,43.1,0,0,0-5.074,10.573c-2.606,7.076-4.8,14.283-6.874,21.529-2.338,8.159-4.723,16.292-7.643,24.267a2.422,2.422,0,0,0,1.677,2.952,2.45,2.45,0,0,0,2.952-1.676Z"></path><path class="c" d="M210.31,199.628c4.969,0,9.938-.11,14.908-.112a2.4,2.4,0,1,0,0-4.8c-4.97,0-9.939.11-14.908.112a2.4,2.4,0,0,0,0,4.8Z"></path><path class="c" d="M205,186.935q.644,3.248,1.4,6.47a14.611,14.611,0,0,1,.758,4.184c-.1,1.483-.37,2.972-.563,4.445-.886,6.783-1.786,13.564-2.659,20.349q-.9,7-1.762,14.008a2.413,2.413,0,0,0,2.4,2.4,2.459,2.459,0,0,0,2.4-2.4c.991-8.115,2.042-16.223,3.1-24.329.625-4.763,1.472-9.554,1.866-14.344a13.848,13.848,0,0,0-.631-4.4c-.628-2.538-1.174-5.1-1.682-7.663a2.423,2.423,0,0,0-2.952-1.676A2.449,2.449,0,0,0,205,186.935Z"></path><path class="c" d="M221.648,176.436q-4.421.009-8.841.019a2.4,2.4,0,1,0,0,4.8q4.421-.007,8.841-.019a2.4,2.4,0,0,0,0-4.8Z"></path><path class="c" d="M233.459,234.4q-1.738-11.624-3.476-23.247-.642-4.322-1.267-8.645-.221-1.54-.433-3.083c-.025-.185.057.441-.006-.052-.019-.149-.039-.3-.058-.446-.033-.261-.072-.523-.094-.785a9.4,9.4,0,0,1,.459-3.278c.583-2.108,1.3-4.167,1.838-6.291.754-3-3.874-4.274-4.629-1.276-.852,3.385-2.634,6.991-2.5,10.536a44.706,44.706,0,0,0,.576,4.444c.9,6.405,1.873,12.8,2.83,19.2q1.064,7.1,2.127,14.2a2.417,2.417,0,0,0,2.952,1.677,2.463,2.463,0,0,0,1.677-2.953Z"></path><path class="c" d="M214.445,277.02a50.619,50.619,0,0,0-2.782,16.5c.073,3.536.459,7.083.683,10.612.682,10.78,1.125,21.572,1.876,32.349q.774,11.109,1.748,22.2a2.463,2.463,0,0,0,2.4,2.4,2.418,2.418,0,0,0,2.4-2.4c-1.86-21.155-2.784-42.353-4.23-63.534a44.913,44.913,0,0,1,2.534-16.858c.96-2.944-3.674-4.2-4.629-1.276Z"></path><path class="c" d="M250.852,165.753c-3.4,14.529-8.184,28.7-13.076,42.778q-7.478,21.52-14.76,43.1l-8.572,25.385c-.99,2.933,3.644,4.192,4.629,1.276q7.7-22.8,15.4-45.6c4.73-14,9.848-27.879,14.34-41.965,2.494-7.821,4.8-15.708,6.67-23.7.7-3-3.923-4.287-4.629-1.276Z"></path><path class="c" d="M251.955,168.464a55.032,55.032,0,0,1,10.09,8.2,56.333,56.333,0,0,1,4.583,5.122c.587.753,1.141,1.536,1.66,2.337.261.4.515.813.754,1.231q.153.266.3.535.106.195.207.4.169.345-.053-.173l.328-1.211q.254-.253-.111,0l-.646.356-.861.475-2.368,1.306-4.52,2.493a2.42,2.42,0,0,0-.486,3.77c2.22,2.01,4.43,4.033,6.573,6.125q.678.661,1.345,1.332a8.909,8.909,0,0,1,1.643,1.687c.091.2.118-.057-.031.292-.321.75-.785,1.478-1.17,2.2q-4.035,7.557-8.216,15.033c-5.741,10.294-11.642,20.5-17.619,30.655q-4.951,8.414-9.965,16.788c-1.589,2.658,2.559,5.075,4.144,2.423,12.586-21.054,25.033-42.213,36.547-63.876.832-1.565,1.542-3.1.944-4.889-.528-1.579-1.908-2.727-3.05-3.871-2.506-2.511-5.122-4.909-7.751-7.29l-.486,3.769,6.028-3.324c1.749-.965,4.406-1.886,4.528-4.237.081-1.571-1.04-3.14-1.863-4.41a45.085,45.085,0,0,0-2.985-4.025,61.1,61.1,0,0,0-15.069-13.353c-2.643-1.615-5.057,2.535-2.423,4.145Z"></path><path class="c" d="M179.262,167.029c3.405,14.529,8.185,28.7,13.077,42.778,4.723,13.6,9.24,27.283,14.3,40.76,2.8,7.458,5.759,14.852,8.736,22.24a2.476,2.476,0,0,0,2.952,1.677A2.417,2.417,0,0,0,220,271.531c-5.283-13.11-10.4-26.268-14.945-39.656-4.75-14-9.846-27.89-14.352-41.974-2.549-7.967-4.9-16-6.812-24.148-.7-3.006-5.334-1.733-4.629,1.276Z"></path><path class="c" d="M180.365,164.319A61.093,61.093,0,0,0,165.3,177.672a46.031,46.031,0,0,0-2.9,3.886c-.853,1.3-2.032,2.937-1.953,4.549.117,2.36,2.775,3.269,4.529,4.237L171,193.668l-.486-3.769c-2.454,2.222-4.9,4.459-7.248,6.789a18.03,18.03,0,0,0-3.145,3.454,5.074,5.074,0,0,0,.113,5.009c2.655,5.313,5.675,10.477,8.607,15.64,6.281,11.061,12.82,21.975,19.453,32.828q5.508,9.015,11.093,17.984c1.626,2.619,5.78.211,4.144-2.423C190.946,248.907,178.4,228.569,167,207.6q-1.119-2.058-2.219-4.125a3.731,3.731,0,0,1-.472-.9c-.05-.308-.1.186.047-.136.278-.6,1.179-1.221,1.642-1.687,2.557-2.571,5.231-5.023,7.918-7.457a2.419,2.419,0,0,0-.486-3.77l-4.52-2.493-2.152-1.187-1.077-.594c-.178-.1-.955-.723-.756-.353l.327,1.211c.016.382-.148.322.084-.09.1-.177.193-.357.293-.533q.353-.624.741-1.226c.512-.8,1.058-1.581,1.637-2.333a62.606,62.606,0,0,1,14.785-13.461c2.632-1.609.223-5.762-2.423-4.145Z"></path><path class="c" d="M237.493,195.2a109.6,109.6,0,0,0,12.858-18.7c.877-1.637,1.71-3.3,2.512-4.971a17.533,17.533,0,0,0,1.248-2.718c.327-1.191-.451-2.264-.984-3.268a31.5,31.5,0,0,0-6.328-8.479,2.447,2.447,0,0,0-3.77.486c-4.025,5.337-10.918,9.605-17.06,12.667-2,1-4.088,1.762-6.09,2.731-2.092,1.012-3.315,2.981-1.836,5.135,1.56,2.271,3.866,4.1,5.723,6.121,3.4,3.7,7.088,7.154,10.333,11a2.42,2.42,0,0,0,3.394,0,2.45,2.45,0,0,0,0-3.394c-3.051-3.616-6.5-6.866-9.719-10.333-1.382-1.49-2.765-2.972-4.209-4.4-.389-.386-.773-.778-1.162-1.163-.156-.154-.5-.66-.008.043-.06-.084-.381-.634-.344-.472v1.276l.071-.276-.618,1.059c-.243.286.251-.17.433-.267s.373-.192.562-.277c.808-.365,1.642-.677,2.455-1.031q2.142-.933,4.222-2a69.948,69.948,0,0,0,7.382-4.371,44.011,44.011,0,0,0,10.616-9.621l-3.77.485a31.153,31.153,0,0,1,6.32,8.927v-2.423A109.915,109.915,0,0,1,234.1,191.806a2.467,2.467,0,0,0,0,3.394A2.421,2.421,0,0,0,237.493,195.2Z"></path><path class="c" d="M200.878,191.806a109.946,109.946,0,0,1-15.624-24.848v2.423a31.164,31.164,0,0,1,6.319-8.927l-3.769-.485a44.011,44.011,0,0,0,10.616,9.621,70.12,70.12,0,0,0,7.382,4.371q1.977,1.017,4.015,1.911c.812.357,1.638.681,2.451,1.035.263.115.517.227.773.363.163.086.721.606.432.267l-.617-1.059.071.276v-1.276c.036-.162-.284.388-.344.472.5-.7.148-.2-.008-.043-.39.385-.773.777-1.162,1.163-1.444,1.431-2.828,2.913-4.209,4.4-3.214,3.467-6.668,6.717-9.72,10.333a2.465,2.465,0,0,0,0,3.394,2.421,2.421,0,0,0,3.394,0c2.856-3.383,6.066-6.444,9.1-9.665,1.405-1.494,2.778-3.016,4.227-4.468.7-.7,1.459-1.372,2.1-2.136,1.372-1.643,1.985-3.83-.03-5.3-1.651-1.2-3.817-1.782-5.661-2.647a69.695,69.695,0,0,1-10.889-6.325,37.466,37.466,0,0,1-7.768-7.115,2.447,2.447,0,0,0-3.77-.486,31.536,31.536,0,0,0-6.328,8.479c-.487.917-1.173,1.87-1.027,2.949a10.63,10.63,0,0,0,1.2,2.846q1.245,2.608,2.6,5.162a109.718,109.718,0,0,0,12.858,18.7,2.42,2.42,0,0,0,3.394,0A2.451,2.451,0,0,0,200.878,191.806Z"></path><path class="c" d="M296.09,358.688c-.017-9.939-.586-19.866-.6-29.805-.017-10.872-.045-21.657,1.886-32.395,3.709-20.63,6.806-41.373,9.483-62.161,1.369-10.629,2.615-21.274,3.672-31.939a2.417,2.417,0,0,0-2.4-2.4,2.452,2.452,0,0,0-2.4,2.4c-1.954,19.714-4.5,39.372-7.437,58.963q-2.331,15.577-5.053,31.093a152.562,152.562,0,0,0-2.2,16.251c-.364,5.367-.373,10.749-.359,16.126.031,11.294.594,22.575.613,33.867,0,3.088,4.805,3.094,4.8,0Z"></path><path class="c" d="M123.17,204.278c1.967,19.78,4.549,39.5,7.521,59.156q2.347,15.526,5.084,30.991a131.766,131.766,0,0,1,1.994,15.647c.3,5.227.286,10.463.27,15.7-.033,10.978-.591,21.943-.609,32.92,0,3.089,4.795,3.094,4.8,0,.015-9.534.589-19.056.6-28.59.011-10.665.161-21.322-1.535-31.888-1.661-10.346-3.595-20.646-5.2-31q-2.377-15.315-4.389-30.686c-1.4-10.729-2.663-21.476-3.734-32.243a2.468,2.468,0,0,0-2.4-2.4,2.416,2.416,0,0,0-2.4,2.4Z"></path><path class="c" d="M265.921,178.837c14.333,5.978,28.532,12.209,42.694,18.573a19.136,19.136,0,0,1,7.508,5.382,24.192,24.192,0,0,1,4.051,8.4c1.049,3.574,1.867,7.216,2.625,10.861,2.26,10.876,3.922,21.878,5.449,32.877,2.039,14.683,3.731,29.415,5.253,44.16q2.7,26.153,4.66,52.373.261,3.462.512,6.926a2.459,2.459,0,0,0,2.4,2.4,2.419,2.419,0,0,0,2.4-2.4q-1.958-27.011-4.63-53.965c-1.558-15.575-3.315-31.133-5.4-46.647-1.558-11.582-3.257-23.165-5.532-34.631-1.917-9.661-3.69-21.1-12.17-27.3-2.983-2.179-6.59-3.328-9.928-4.83-3.464-1.559-6.874-3.237-10.343-4.787-7.627-3.408-15.334-6.634-23.044-9.849q-2.613-1.089-5.226-2.178a2.416,2.416,0,0,0-2.953,1.676,2.463,2.463,0,0,0,1.677,2.953Z"></path><path class="c" d="M234.451,286.945c.267.241.483.531.742.774q-.365-.483-.15-.186c.047.067.092.135.135.2.074.117.143.237.208.359.1.192.208.609-.024-.107.045.14.105.276.149.417a5.526,5.526,0,0,1,.183.835l-.086-.638a6.024,6.024,0,0,1,0,1.512l.086-.638a6.677,6.677,0,0,1-.173.839q-.049.175-.108.348c-.038.112-.231.587-.035.122s0-.017-.053.092-.11.208-.169.309-.117.185-.177.277c-.248.383.42-.482.141-.179-.1.108-.5.65-.644.626.016,0,.556-.389.189-.156-.06.038-.118.078-.178.116q-.2.126-.416.234c-.063.032-.128.061-.192.092-.338.168.5-.184.229-.1-.137.044-.269.1-.406.139a6.733,6.733,0,0,1-1,.219l.638-.085a7.121,7.121,0,0,1-1.816.006l.638.085a8.4,8.4,0,0,1-1.4-.358c.724.232.394.172.209.081-.117-.058-.233-.12-.345-.188-.083-.05-.162-.105-.243-.157-.33-.212.512.441.129.1a8.322,8.322,0,0,1-.624-.622c-.283-.311.343.508-.006-.014-.067-.1-.13-.2-.189-.306s-.107-.208-.161-.312c-.187-.362.22.622.035.046a4.694,4.694,0,0,1-.171-.751l.086.638a5.2,5.2,0,0,1,0-1.3l-.086.638a6.212,6.212,0,0,1,.2-.905c.043-.141.093-.278.143-.417.162-.456-.243.5-.024.063a9.187,9.187,0,0,1,.46-.829c.08-.125.164-.249.251-.37a.99.99,0,0,1,.133-.179c-.073.063-.394.476-.132.181.09-.1.177-.2.274-.3s.465-.39.1-.113.041-.019.14-.081a4.713,4.713,0,0,1,.416-.234c.024-.013.173-.1.194-.093,0,0-.592.227-.273.116.139-.048.276-.1.416-.142a6.61,6.61,0,0,1,.983-.208l-.638.086a6.4,6.4,0,0,1,1.577,0l-.638-.086a5.962,5.962,0,0,1,.662.132c.091.024.18.051.269.08s.5.194.08.015c-.4-.172-.073-.029.019.017s.2.1.294.161.188.122.282.184c.337.221-.46-.377-.133-.1a2.555,2.555,0,0,0,1.7.7,2.4,2.4,0,0,0,1.7-4.1,7.639,7.639,0,0,0-4.905-1.866,8.127,8.127,0,0,0-4.511,1.236,8.608,8.608,0,0,0-3.607,8.656,7.448,7.448,0,0,0,3.058,4.353,8.37,8.37,0,0,0,11.584-2.631,8.377,8.377,0,0,0,.967-4.49,7.953,7.953,0,0,0-2.586-5.258,2.4,2.4,0,0,0-3.4,3.394Z"></path><path class="c" d="M56.871,246.37c-.993-3.2-1.66-6.517-2.738-9.688l-1.676,2.953c8.7-2.4,17.386-4.852,25.952-7.682,2.5-.825,4.989-1.678,7.425-2.672l-2.953-1.676c1.209,3.066,2.174,6.223,3.354,9.3a2.47,2.47,0,0,0,2.953,1.676,2.419,2.419,0,0,0,1.676-2.952c-1.18-3.077-2.146-6.234-3.354-9.3-.431-1.094-1.65-2.208-2.952-1.677-9.406,3.838-19.389,6.447-29.158,9.183q-2.108.591-4.219,1.171a2.424,2.424,0,0,0-1.677,2.952c1.078,3.171,1.745,6.488,2.738,9.688.913,2.941,5.548,1.686,4.629-1.276Z"></path><path class="c" d="M109.259,282.628c-5.332-15.806-10.051-31.8-14.789-47.789a2.417,2.417,0,0,0-2.953-1.676q-10.059,4.078-20.432,7.335c-6.457,2.023-13.318,4.039-19.923,4.819a2.449,2.449,0,0,0-2.314,3.038c2.39,11.575,4.646,23.18,7.427,34.669,2.553,10.544,5.267,21.332,9.825,31.219,3.767,8.17,9.493,15.831,17.819,19.739a36.052,36.052,0,0,0,31.429-.337c4.831-2.418,9.02-6.027,12.937-9.7,3.869-3.63,7.49-7.506,11.174-11.32,2.147-2.223-1.243-5.621-3.394-3.394-6.185,6.4-12.24,13.42-19.749,18.323a31.312,31.312,0,0,1-28.355,2.963c-7.9-2.95-13.289-9.711-16.932-17.057a87.115,87.115,0,0,1-4.831-12.5c-1.743-5.5-3.274-11.074-4.672-16.675-3.071-12.314-5.484-24.778-8.049-37.2l-2.315,3.038a116.452,116.452,0,0,0,20.816-4.871q10.556-3.287,20.815-7.455l-2.952-1.676c4.738,15.992,9.457,31.983,14.79,47.79.982,2.911,5.62,1.662,4.628-1.277Z"></path><path class="c" d="M206.568,130.205c3.015,2.955,7.8,3.811,11.844,3.811s8.83-.847,11.851-3.8c2.212-2.164-1.183-5.557-3.4-3.394-.1.1-.6.521-.3.285.28-.221-.368.245-.517.336-.263.162-.534.311-.81.449-.185.093-.374.182-.564.265.325-.142-.008,0-.161.054a17.755,17.755,0,0,1-6.1,1,17.264,17.264,0,0,1-5.993-.971c-.028-.01-.722-.3-.27-.1-.159-.07-.316-.144-.472-.22-.307-.151-.608-.315-.9-.5-.223-.138-.433-.292-.65-.44.614.418-.016-.036-.166-.183-2.208-2.164-5.6,1.228-3.394,3.394Z"></path><path class="c" d="M217.858,107.891A48.439,48.439,0,0,1,219,113.118l-.085-.638a3.23,3.23,0,0,1,.019.722l.086-.638a1.8,1.8,0,0,1-.08.324l.242-.573a1.216,1.216,0,0,1-.115.209l.376-.486a1.132,1.132,0,0,1-.171.168l.486-.375a3.638,3.638,0,0,1-.414.219l.573-.242a3.035,3.035,0,0,1-.7.2l.638-.086a2.814,2.814,0,0,1-.655,0l.638.085c-.247-.034-.489-.094-.736-.128a2.657,2.657,0,0,0-1.85.242,2.4,2.4,0,0,0-.861,3.284,2.3,2.3,0,0,0,1.435,1.1c.537.073,1.058.21,1.605.234a5.06,5.06,0,0,0,2.333-.55,3.308,3.308,0,0,0,1.852-2.187,5.6,5.6,0,0,0-.025-2.387c-.283-1.684-.672-3.353-1.1-5.005a2.4,2.4,0,0,0-4.628,1.276Z"></path><path class="c" d="M190.27,93.29c-.854,2.773-.3,9.152,4.952,9.7,6.943-.038,7.316-7.75,4.981-11.377C198.291,88.64,192.664,87.4,190.27,93.29Z"></path><path class="c" d="M245.643,93.319c.852,2.773.293,9.152-4.96,9.692-6.944-.046-7.309-7.758-4.97-11.383C237.628,88.66,243.255,87.428,245.643,93.319Z"></path></svg>